<?xml version="1.0" encoding="UTF-8" standalone="no"?>
<!DOCTYPE svg PUBLIC "-//W3C//DTD SVG 1.1//EN"
 "http://www.w3.org/Graphics/SVG/1.1/DTD/svg11.dtd">
<!-- Generated by graphviz version 2.40.1 (0)
 -->
<!-- Title: snakemake_dag Pages: 1 -->
<svg width="826pt" height="332pt"
 viewBox="0.00 0.00 825.98 332.00" xmlns="http://www.w3.org/2000/svg" xmlns:xlink="http://www.w3.org/1999/xlink">
<g id="graph0" class="graph" transform="scale(1 1) rotate(0) translate(4 328)">
<title>snakemake_dag</title>
<polygon fill="#ffffff" stroke="transparent" points="-4,4 -4,-328 821.9751,-328 821.9751,4 -4,4"/>
<!-- 0 -->
<g id="node1" class="node">
<title>0</title>
<path fill="none" stroke="#d8ac56" stroke-width="2" d="M504.5,-36C504.5,-36 432.5,-36 432.5,-36 426.5,-36 420.5,-30 420.5,-24 420.5,-24 420.5,-12 420.5,-12 420.5,-6 426.5,0 432.5,0 432.5,0 504.5,0 504.5,0 510.5,0 516.5,-6 516.5,-12 516.5,-12 516.5,-24 516.5,-24 516.5,-30 510.5,-36 504.5,-36"/>
<text text-anchor="middle" x="468.5" y="-15.5" font-family="sans" font-size="10.00" fill="#000000">make_summary</text>
</g>
<!-- 1 -->
<g id="node2" class="node">
<title>1</title>
<path fill="none" stroke="#5682d8" stroke-width="2" d="M100.5,-180C100.5,-180 56.5,-180 56.5,-180 50.5,-180 44.5,-174 44.5,-168 44.5,-168 44.5,-156 44.5,-156 44.5,-150 50.5,-144 56.5,-144 56.5,-144 100.5,-144 100.5,-144 106.5,-144 112.5,-150 112.5,-156 112.5,-156 112.5,-168 112.5,-168 112.5,-174 106.5,-180 100.5,-180"/>
<text text-anchor="middle" x="78.5" y="-159.5" font-family="sans" font-size="10.00" fill="#000000">make_dag</text>
</g>
<!-- 1&#45;&gt;0 -->
<g id="edge1" class="edge">
<title>1&#45;&gt;0</title>
<path fill="none" stroke="#c0c0c0" stroke-width="2" d="M88.2805,-143.8295C100.5736,-122.8903 123.7202,-89.1664 153.5,-72 196.2271,-47.3702 331.5081,-30.9077 410.1994,-23.1462"/>
<polygon fill="#c0c0c0" stroke="#c0c0c0" stroke-width="2" points="410.8272,-26.6019 420.4429,-22.1535 410.1519,-19.6345 410.8272,-26.6019"/>
</g>
<!-- 2 -->
<g id="node3" class="node">
<title>2</title>
<path fill="none" stroke="#56d8a9" stroke-width="2" d="M89,-108C89,-108 12,-108 12,-108 6,-108 0,-102 0,-96 0,-96 0,-84 0,-84 0,-78 6,-72 12,-72 12,-72 89,-72 89,-72 95,-72 101,-78 101,-84 101,-84 101,-96 101,-96 101,-102 95,-108 89,-108"/>
<text text-anchor="middle" x="50.5" y="-87.5" font-family="sans" font-size="10.00" fill="#000000">save_pinned_env</text>
</g>
<!-- 1&#45;&gt;2 -->
<g id="edge12" class="edge">
<title>1&#45;&gt;2</title>
<path fill="none" stroke="#c0c0c0" stroke-width="2" d="M71.4344,-143.8314C68.374,-135.9617 64.7221,-126.5712 61.3318,-117.8533"/>
<polygon fill="#c0c0c0" stroke="#c0c0c0" stroke-width="2" points="64.5473,-116.4647 57.6607,-108.4133 58.0232,-119.0019 64.5473,-116.4647"/>
</g>
<!-- 2&#45;&gt;0 -->
<g id="edge2" class="edge">
<title>2&#45;&gt;0</title>
<path fill="none" stroke="#c0c0c0" stroke-width="2" d="M101.0988,-75.3646C105.9476,-74.1504 110.8056,-73.0054 115.5,-72 218.4951,-49.9423 340.2572,-33.3785 410.5145,-24.7314"/>
<polygon fill="#c0c0c0" stroke="#c0c0c0" stroke-width="2" points="410.9958,-28.1988 420.4982,-23.5134 410.1479,-21.2503 410.9958,-28.1988"/>
</g>
<!-- 3 -->
<g id="node4" class="node">
<title>3</title>
<path fill="none" stroke="#59d856" stroke-width="2" d="M777,-180C777,-180 634,-180 634,-180 628,-180 622,-174 622,-168 622,-168 622,-156 622,-156 622,-150 628,-144 634,-144 634,-144 777,-144 777,-144 783,-144 789,-150 789,-156 789,-156 789,-168 789,-168 789,-174 783,-180 777,-180"/>
<text text-anchor="middle" x="705.5" y="-159.5" font-family="sans" font-size="10.00" fill="#000000">get_SARSr_wts_mut_bind_expr</text>
</g>
<!-- 3&#45;&gt;0 -->
<g id="edge3" class="edge">
<title>3&#45;&gt;0</title>
<path fill="none" stroke="#c0c0c0" stroke-width="2" d="M712.0738,-143.9648C718.0482,-124.092 723.698,-92.266 707.5,-72 685.2977,-44.2216 590.1543,-29.6943 526.8149,-22.958"/>
<polygon fill="#c0c0c0" stroke="#c0c0c0" stroke-width="2" points="526.8554,-19.4439 516.5503,-21.9045 526.1407,-26.4073 526.8554,-19.4439"/>
</g>
<!-- 10 -->
<g id="node11" class="node">
<title>10</title>
<path fill="none" stroke="#d85656" stroke-width="2" d="M686.5,-108C686.5,-108 574.5,-108 574.5,-108 568.5,-108 562.5,-102 562.5,-96 562.5,-96 562.5,-84 562.5,-84 562.5,-78 568.5,-72 574.5,-72 574.5,-72 686.5,-72 686.5,-72 692.5,-72 698.5,-78 698.5,-84 698.5,-84 698.5,-96 698.5,-96 698.5,-102 692.5,-108 686.5,-108"/>
<text text-anchor="middle" x="630.5" y="-87.5" font-family="sans" font-size="10.00" fill="#000000">collapse_bcs_SARSr_wts</text>
</g>
<!-- 3&#45;&gt;10 -->
<g id="edge18" class="edge">
<title>3&#45;&gt;10</title>
<path fill="none" stroke="#c0c0c0" stroke-width="2" d="M686.5743,-143.8314C677.5143,-135.1337 666.5191,-124.5783 656.6735,-115.1265"/>
<polygon fill="#c0c0c0" stroke="#c0c0c0" stroke-width="2" points="659.0574,-112.5633 649.4196,-108.1628 654.2096,-117.613 659.0574,-112.5633"/>
</g>
<!-- 4 -->
<g id="node5" class="node">
<title>4</title>
<path fill="none" stroke="#56d8d8" stroke-width="2" d="M298.5,-252C298.5,-252 150.5,-252 150.5,-252 144.5,-252 138.5,-246 138.5,-240 138.5,-240 138.5,-228 138.5,-228 138.5,-222 144.5,-216 150.5,-216 150.5,-216 298.5,-216 298.5,-216 304.5,-216 310.5,-222 310.5,-228 310.5,-228 310.5,-240 310.5,-240 310.5,-246 304.5,-252 298.5,-252"/>
<text text-anchor="middle" x="224.5" y="-231.5" font-family="sans" font-size="10.00" fill="#000000">get_SARSr_DMS_mut_bind_expr</text>
</g>
<!-- 4&#45;&gt;0 -->
<g id="edge4" class="edge">
<title>4&#45;&gt;0</title>
<path fill="none" stroke="#c0c0c0" stroke-width="2" d="M207.3831,-215.9746C192.0053,-197.4862 173.6669,-168.1032 186.5,-144 229.5865,-63.0743 340.905,-34.042 410.0978,-23.6839"/>
<polygon fill="#c0c0c0" stroke="#c0c0c0" stroke-width="2" points="410.9918,-27.0926 420.4058,-22.2319 410.0153,-20.161 410.9918,-27.0926"/>
</g>
<!-- 9 -->
<g id="node10" class="node">
<title>9</title>
<path fill="none" stroke="#56a9d8" stroke-width="2" d="M323.5,-180C323.5,-180 207.5,-180 207.5,-180 201.5,-180 195.5,-174 195.5,-168 195.5,-168 195.5,-156 195.5,-156 195.5,-150 201.5,-144 207.5,-144 207.5,-144 323.5,-144 323.5,-144 329.5,-144 335.5,-150 335.5,-156 335.5,-156 335.5,-168 335.5,-168 335.5,-174 329.5,-180 323.5,-180"/>
<text text-anchor="middle" x="265.5" y="-159.5" font-family="sans" font-size="10.00" fill="#000000">collapse_bcs_SARSr_DMS</text>
</g>
<!-- 4&#45;&gt;9 -->
<g id="edge15" class="edge">
<title>4&#45;&gt;9</title>
<path fill="none" stroke="#c0c0c0" stroke-width="2" d="M234.846,-215.8314C239.4237,-207.7925 244.9052,-198.1666 249.9588,-189.2918"/>
<polygon fill="#c0c0c0" stroke="#c0c0c0" stroke-width="2" points="253.1077,-190.8351 255.0147,-180.4133 247.0248,-187.3712 253.1077,-190.8351"/>
</g>
<!-- 5 -->
<g id="node6" class="node">
<title>5</title>
<path fill="none" stroke="#afd856" stroke-width="2" d="M522.5,-252C522.5,-252 372.5,-252 372.5,-252 366.5,-252 360.5,-246 360.5,-240 360.5,-240 360.5,-228 360.5,-228 360.5,-222 366.5,-216 372.5,-216 372.5,-216 522.5,-216 522.5,-216 528.5,-216 534.5,-222 534.5,-228 534.5,-228 534.5,-240 534.5,-240 534.5,-246 528.5,-252 522.5,-252"/>
<text text-anchor="middle" x="447.5" y="-231.5" font-family="sans" font-size="10.00" fill="#000000">get_SARS2_DMS_mut_bind_expr</text>
</g>
<!-- 5&#45;&gt;0 -->
<g id="edge5" class="edge">
<title>5&#45;&gt;0</title>
<path fill="none" stroke="#c0c0c0" stroke-width="2" d="M495.492,-215.9585C511.0962,-207.5363 526.6587,-195.7985 535.5,-180 561.123,-134.2142 521.8545,-76.6309 493.4713,-43.9014"/>
<polygon fill="#c0c0c0" stroke="#c0c0c0" stroke-width="2" points="495.8083,-41.2638 486.5358,-36.1381 490.588,-45.9274 495.8083,-41.2638"/>
</g>
<!-- 5&#45;&gt;9 -->
<g id="edge16" class="edge">
<title>5&#45;&gt;9</title>
<path fill="none" stroke="#c0c0c0" stroke-width="2" d="M401.5737,-215.8314C376.9077,-206.0734 346.3309,-193.977 320.414,-183.7242"/>
<polygon fill="#c0c0c0" stroke="#c0c0c0" stroke-width="2" points="321.6824,-180.4621 311.096,-180.038 319.1073,-186.9713 321.6824,-180.4621"/>
</g>
<!-- 6 -->
<g id="node7" class="node">
<title>6</title>
<path fill="none" stroke="#d88556" stroke-width="2" d="M515,-180C515,-180 366,-180 366,-180 360,-180 354,-174 354,-168 354,-168 354,-156 354,-156 354,-150 360,-144 366,-144 366,-144 515,-144 515,-144 521,-144 527,-150 527,-156 527,-156 527,-168 527,-168 527,-174 521,-180 515,-180"/>
<text text-anchor="middle" x="440.5" y="-159.5" font-family="sans" font-size="10.00" fill="#000000">get_WH1_mut_antibody_escape</text>
</g>
<!-- 6&#45;&gt;0 -->
<g id="edge6" class="edge">
<title>6&#45;&gt;0</title>
<path fill="none" stroke="#c0c0c0" stroke-width="2" d="M444.0462,-143.7623C448.8431,-119.0928 457.4439,-74.8598 463.0608,-45.9731"/>
<polygon fill="#c0c0c0" stroke="#c0c0c0" stroke-width="2" points="466.5095,-46.5738 464.9826,-36.0896 459.6381,-45.2377 466.5095,-46.5738"/>
</g>
<!-- 11 -->
<g id="node12" class="node">
<title>11</title>
<path fill="none" stroke="#80d856" stroke-width="2" d="M428.5,-108C428.5,-108 350.5,-108 350.5,-108 344.5,-108 338.5,-102 338.5,-96 338.5,-96 338.5,-84 338.5,-84 338.5,-78 344.5,-72 350.5,-72 350.5,-72 428.5,-72 428.5,-72 434.5,-72 440.5,-78 440.5,-84 440.5,-84 440.5,-96 440.5,-96 440.5,-102 434.5,-108 428.5,-108"/>
<text text-anchor="middle" x="389.5" y="-87.5" font-family="sans" font-size="10.00" fill="#000000">analyze_epitopes</text>
</g>
<!-- 6&#45;&gt;11 -->
<g id="edge20" class="edge">
<title>6&#45;&gt;11</title>
<path fill="none" stroke="#c0c0c0" stroke-width="2" d="M427.6305,-143.8314C421.8165,-135.6232 414.8304,-125.7606 408.4354,-116.7323"/>
<polygon fill="#c0c0c0" stroke="#c0c0c0" stroke-width="2" points="411.179,-114.5505 402.5427,-108.4133 405.4669,-118.5966 411.179,-114.5505"/>
</g>
<!-- 7 -->
<g id="node8" class="node">
<title>7</title>
<path fill="none" stroke="#56d882" stroke-width="2" d="M797,-324C797,-324 732,-324 732,-324 726,-324 720,-318 720,-312 720,-312 720,-300 720,-300 720,-294 726,-288 732,-288 732,-288 797,-288 797,-288 803,-288 809,-294 809,-300 809,-300 809,-312 809,-312 809,-318 803,-324 797,-324"/>
<text text-anchor="middle" x="764.5" y="-303.5" font-family="sans" font-size="10.00" fill="#000000">count_variants</text>
</g>
<!-- 7&#45;&gt;0 -->
<g id="edge7" class="edge">
<title>7&#45;&gt;0</title>
<path fill="none" stroke="#c0c0c0" stroke-width="2" d="M774.237,-287.8791C786.4756,-263.9758 806.8112,-220.2215 814.5,-180 824.329,-128.5827 811.1268,-100.9317 767.5,-72 728.8725,-46.3837 602.3797,-30.4902 526.8565,-23.042"/>
<polygon fill="#c0c0c0" stroke="#c0c0c0" stroke-width="2" points="526.8427,-19.5245 516.5526,-22.047 526.1698,-26.4921 526.8427,-19.5245"/>
</g>
<!-- 8 -->
<g id="node9" class="node">
<title>8</title>
<path fill="none" stroke="#d6d856" stroke-width="2" d="M686.5,-252C686.5,-252 580.5,-252 580.5,-252 574.5,-252 568.5,-246 568.5,-240 568.5,-240 568.5,-228 568.5,-228 568.5,-222 574.5,-216 580.5,-216 580.5,-216 686.5,-216 686.5,-216 692.5,-216 698.5,-222 698.5,-228 698.5,-228 698.5,-240 698.5,-240 698.5,-246 692.5,-252 686.5,-252"/>
<text text-anchor="middle" x="633.5" y="-231.5" font-family="sans" font-size="10.00" fill="#000000">calculate_bc_sera_AUC</text>
</g>
<!-- 7&#45;&gt;8 -->
<g id="edge13" class="edge">
<title>7&#45;&gt;8</title>
<path fill="none" stroke="#c0c0c0" stroke-width="2" d="M731.4432,-287.8314C714.5323,-278.5368 693.7615,-267.1208 675.7059,-257.1971"/>
<polygon fill="#c0c0c0" stroke="#c0c0c0" stroke-width="2" points="676.9957,-253.9122 666.5463,-252.1628 673.624,-260.0468 676.9957,-253.9122"/>
</g>
<!-- 8&#45;&gt;0 -->
<g id="edge8" class="edge">
<title>8&#45;&gt;0</title>
<path fill="none" stroke="#c0c0c0" stroke-width="2" d="M698.6224,-220.7328C739.0042,-211.0355 785.4194,-196.6964 797.5,-180 806.8791,-167.0373 803.5187,-158.8248 797.5,-144 780.7113,-102.6473 766.6132,-93.4956 727.5,-72 693.5889,-53.3634 592.1263,-35.8674 526.7191,-26.0834"/>
<polygon fill="#c0c0c0" stroke="#c0c0c0" stroke-width="2" points="526.9513,-22.5797 516.5471,-24.5803 525.928,-29.5046 526.9513,-22.5797"/>
</g>
<!-- 8&#45;&gt;9 -->
<g id="edge14" class="edge">
<title>8&#45;&gt;9</title>
<path fill="none" stroke="#c0c0c0" stroke-width="2" d="M568.1501,-220.7831C559.8574,-219.1492 551.4831,-217.5203 543.5,-216 458.3108,-199.7769 434.235,-198.0917 345.625,-180.1854"/>
<polygon fill="#c0c0c0" stroke="#c0c0c0" stroke-width="2" points="346.1727,-176.7252 335.6757,-178.1619 344.7775,-183.5848 346.1727,-176.7252"/>
</g>
<!-- 8&#45;&gt;10 -->
<g id="edge17" class="edge">
<title>8&#45;&gt;10</title>
<path fill="none" stroke="#c0c0c0" stroke-width="2" d="M624.3423,-215.5129C619.7987,-205.3118 614.7998,-192.2593 612.5,-180 609.5498,-164.2743 609.9371,-159.7934 612.5,-144 613.918,-135.2621 616.5475,-126.0275 619.3671,-117.7136"/>
<polygon fill="#c0c0c0" stroke="#c0c0c0" stroke-width="2" points="622.7254,-118.7187 622.8321,-108.1244 616.142,-116.3399 622.7254,-118.7187"/>
</g>
<!-- 9&#45;&gt;0 -->
<g id="edge9" class="edge">
<title>9&#45;&gt;0</title>
<path fill="none" stroke="#c0c0c0" stroke-width="2" d="M274.3575,-143.7007C284.9331,-123.5911 304.3882,-91.5538 329.5,-72 353.2413,-53.5134 384.0764,-40.6822 410.6703,-32.1818"/>
<polygon fill="#c0c0c0" stroke="#c0c0c0" stroke-width="2" points="411.7202,-35.5208 420.2552,-29.2436 409.6685,-28.8282 411.7202,-35.5208"/>
</g>
<!-- 9&#45;&gt;11 -->
<g id="edge19" class="edge">
<title>9&#45;&gt;11</title>
<path fill="none" stroke="#c0c0c0" stroke-width="2" d="M296.7904,-143.8314C312.7977,-134.5368 332.4586,-123.1208 349.5494,-113.1971"/>
<polygon fill="#c0c0c0" stroke="#c0c0c0" stroke-width="2" points="351.3292,-116.211 358.2196,-108.1628 347.8142,-110.1575 351.3292,-116.211"/>
</g>
<!-- 10&#45;&gt;0 -->
<g id="edge10" class="edge">
<title>10&#45;&gt;0</title>
<path fill="none" stroke="#c0c0c0" stroke-width="2" d="M589.6206,-71.8314C567.954,-62.2018 541.1637,-50.295 518.2922,-40.1299"/>
<polygon fill="#c0c0c0" stroke="#c0c0c0" stroke-width="2" points="519.6451,-36.9011 509.0855,-36.038 516.8021,-43.2978 519.6451,-36.9011"/>
</g>
<!-- 11&#45;&gt;0 -->
<g id="edge11" class="edge">
<title>11&#45;&gt;0</title>
<path fill="none" stroke="#c0c0c0" stroke-width="2" d="M409.435,-71.8314C418.9783,-63.1337 430.5599,-52.5783 440.9306,-43.1265"/>
<polygon fill="#c0c0c0" stroke="#c0c0c0" stroke-width="2" points="443.538,-45.4857 448.5713,-36.1628 438.8228,-40.3121 443.538,-45.4857"/>
</g>
</g>
</svg>
